<svg width="126" height="126" viewBox="0 0 126 126" fill="none" xmlns="http://www.w3.org/2000/svg">
<mask id="path-1-outside-1_301_1804" maskUnits="userSpaceOnUse" x="28.8505" y="18.7561" width="69" height="89" fill="black">
<rect fill="white" x="28.8505" y="18.7561" width="69" height="89"/>
<path d="M91.1972 75.2192L71.5265 55.5483L65.8755 49.8973V29.9438C65.8724 27.2428 64.7981 24.6533 62.8883 22.7434C60.9785 20.8336 58.389 19.7592 55.6881 19.7561H53.4893C53.1956 19.7561 52.9139 19.8728 52.7062 20.0805C52.4986 20.2881 52.3819 20.5698 52.3819 20.8635V46.1355L35.9503 29.7038C35.8475 29.6009 35.7254 29.5193 35.5911 29.4637C35.4567 29.408 35.3127 29.3793 35.1672 29.3793C35.0218 29.3793 34.8778 29.408 34.7434 29.4637C34.609 29.5193 34.4869 29.6009 34.3841 29.7038L32.8294 31.2585C30.9218 33.1705 29.8505 35.7611 29.8505 38.462C29.8505 41.1629 30.9218 43.7535 32.8294 45.6655L50.6986 63.5347C51.2769 64.1132 51.9222 64.6205 52.6209 65.0457V92.1134C52.6142 94.6612 53.1868 97.1772 54.2954 99.4712C55.4039 101.765 57.0194 103.777 59.0197 105.355C59.6208 105.832 60.3441 106.13 61.1067 106.214C61.8693 106.298 62.6402 106.166 63.331 105.832C64.0218 105.498 64.6045 104.977 65.0123 104.327C65.42 103.677 65.6363 102.925 65.6364 102.158V68.0649L89.0965 91.525C89.4726 91.9045 89.9201 92.2058 90.4132 92.4116C90.9063 92.6175 91.4352 92.7237 91.9696 92.7242C92.4311 92.7237 92.8892 92.6457 93.3248 92.4933C94.0512 92.244 94.6918 91.7933 95.1719 91.1938C95.6519 90.5943 95.9517 89.8707 96.0361 89.1073C96.3349 86.577 96.0545 84.0119 95.2162 81.606C94.3779 79.2 93.0036 77.016 91.1972 75.2192ZM55.6881 21.9709C57.8018 21.9734 59.8283 22.8141 61.3229 24.3088C62.8176 25.8035 63.6583 27.83 63.6606 29.9438V47.6826L62.7796 46.8016C61.7248 45.7494 60.358 45.0665 58.8833 44.8547C57.4086 44.6429 55.905 44.9135 54.5966 45.6262V21.9709H55.6881ZM34.3957 44.0997C32.9027 42.6034 32.0642 40.5759 32.0642 38.4621C32.0642 36.3484 32.9027 34.3209 34.3957 32.8246L35.1672 32.0531L52.2533 49.1391C52.461 49.3468 52.7426 49.4634 53.0363 49.4635C53.33 49.4635 53.6117 49.3469 53.8194 49.1393L54.591 48.3679V48.3677C55.4699 47.4908 56.6607 46.9984 57.9021 46.9984C59.1436 46.9984 60.3344 47.4908 61.2133 48.3677L69.1771 56.3312L63.5397 61.9689C62.0446 63.4639 60.0167 64.3038 57.9023 64.3038C55.7879 64.3038 53.76 63.4639 52.2648 61.9689L34.3957 44.0997ZM63.4215 102.158C63.4215 102.509 63.3226 102.852 63.1361 103.15C62.9497 103.447 62.6833 103.685 62.3674 103.838C62.0515 103.991 61.6991 104.051 61.3504 104.013C61.0017 103.974 60.6709 103.838 60.396 103.62C58.6578 102.249 57.2541 100.5 56.2908 98.507C55.3276 96.5137 54.83 94.3274 54.8357 92.1134V66.0494C57.391 66.8514 60.1588 66.619 62.5446 65.4021H62.9736L63.4215 65.85L63.4215 102.158ZM93.8356 88.8534C93.7954 89.2019 93.6578 89.532 93.4385 89.8059C93.2192 90.0797 92.9272 90.2862 92.5959 90.4016C92.2646 90.517 91.9075 90.5367 91.5656 90.4584C91.2236 90.3801 90.9106 90.207 90.6626 89.9589L64.6724 63.9686L70.7435 57.8975L89.6312 76.7852C91.2008 78.3466 92.3949 80.2444 93.1233 82.3351C93.8517 84.4258 94.0952 86.6547 93.8356 88.8534Z"/>
</mask>
<path d="M91.1972 75.2192L71.5265 55.5483L65.8755 49.8973V29.9438C65.8724 27.2428 64.7981 24.6533 62.8883 22.7434C60.9785 20.8336 58.389 19.7592 55.6881 19.7561H53.4893C53.1956 19.7561 52.9139 19.8728 52.7062 20.0805C52.4986 20.2881 52.3819 20.5698 52.3819 20.8635V46.1355L35.9503 29.7038C35.8475 29.6009 35.7254 29.5193 35.5911 29.4637C35.4567 29.408 35.3127 29.3793 35.1672 29.3793C35.0218 29.3793 34.8778 29.408 34.7434 29.4637C34.609 29.5193 34.4869 29.6009 34.3841 29.7038L32.8294 31.2585C30.9218 33.1705 29.8505 35.7611 29.8505 38.462C29.8505 41.1629 30.9218 43.7535 32.8294 45.6655L50.6986 63.5347C51.2769 64.1132 51.9222 64.6205 52.6209 65.0457V92.1134C52.6142 94.6612 53.1868 97.1772 54.2954 99.4712C55.4039 101.765 57.0194 103.777 59.0197 105.355C59.6208 105.832 60.3441 106.13 61.1067 106.214C61.8693 106.298 62.6402 106.166 63.331 105.832C64.0218 105.498 64.6045 104.977 65.0123 104.327C65.42 103.677 65.6363 102.925 65.6364 102.158V68.0649L89.0965 91.525C89.4726 91.9045 89.9201 92.2058 90.4132 92.4116C90.9063 92.6175 91.4352 92.7237 91.9696 92.7242C92.4311 92.7237 92.8892 92.6457 93.3248 92.4933C94.0512 92.244 94.6918 91.7933 95.1719 91.1938C95.6519 90.5943 95.9517 89.8707 96.0361 89.1073C96.3349 86.577 96.0545 84.0119 95.2162 81.606C94.3779 79.2 93.0036 77.016 91.1972 75.2192ZM55.6881 21.9709C57.8018 21.9734 59.8283 22.8141 61.3229 24.3088C62.8176 25.8035 63.6583 27.83 63.6606 29.9438V47.6826L62.7796 46.8016C61.7248 45.7494 60.358 45.0665 58.8833 44.8547C57.4086 44.6429 55.905 44.9135 54.5966 45.6262V21.9709H55.6881ZM34.3957 44.0997C32.9027 42.6034 32.0642 40.5759 32.0642 38.4621C32.0642 36.3484 32.9027 34.3209 34.3957 32.8246L35.1672 32.0531L52.2533 49.1391C52.461 49.3468 52.7426 49.4634 53.0363 49.4635C53.33 49.4635 53.6117 49.3469 53.8194 49.1393L54.591 48.3679V48.3677C55.4699 47.4908 56.6607 46.9984 57.9021 46.9984C59.1436 46.9984 60.3344 47.4908 61.2133 48.3677L69.1771 56.3312L63.5397 61.9689C62.0446 63.4639 60.0167 64.3038 57.9023 64.3038C55.7879 64.3038 53.76 63.4639 52.2648 61.9689L34.3957 44.0997ZM63.4215 102.158C63.4215 102.509 63.3226 102.852 63.1361 103.15C62.9497 103.447 62.6833 103.685 62.3674 103.838C62.0515 103.991 61.6991 104.051 61.3504 104.013C61.0017 103.974 60.6709 103.838 60.396 103.62C58.6578 102.249 57.2541 100.5 56.2908 98.507C55.3276 96.5137 54.83 94.3274 54.8357 92.1134V66.0494C57.391 66.8514 60.1588 66.619 62.5446 65.4021H62.9736L63.4215 65.85L63.4215 102.158ZM93.8356 88.8534C93.7954 89.2019 93.6578 89.532 93.4385 89.8059C93.2192 90.0797 92.9272 90.2862 92.5959 90.4016C92.2646 90.517 91.9075 90.5367 91.5656 90.4584C91.2236 90.3801 90.9106 90.207 90.6626 89.9589L64.6724 63.9686L70.7435 57.8975L89.6312 76.7852C91.2008 78.3466 92.3949 80.2444 93.1233 82.3351C93.8517 84.4258 94.0952 86.6547 93.8356 88.8534Z" fill="#285A43"/>
<path d="M91.1972 75.2192L71.5265 55.5483L65.8755 49.8973V29.9438C65.8724 27.2428 64.7981 24.6533 62.8883 22.7434C60.9785 20.8336 58.389 19.7592 55.6881 19.7561H53.4893C53.1956 19.7561 52.9139 19.8728 52.7062 20.0805C52.4986 20.2881 52.3819 20.5698 52.3819 20.8635V46.1355L35.9503 29.7038C35.8475 29.6009 35.7254 29.5193 35.5911 29.4637C35.4567 29.408 35.3127 29.3793 35.1672 29.3793C35.0218 29.3793 34.8778 29.408 34.7434 29.4637C34.609 29.5193 34.4869 29.6009 34.3841 29.7038L32.8294 31.2585C30.9218 33.1705 29.8505 35.7611 29.8505 38.462C29.8505 41.1629 30.9218 43.7535 32.8294 45.6655L50.6986 63.5347C51.2769 64.1132 51.9222 64.6205 52.6209 65.0457V92.1134C52.6142 94.6612 53.1868 97.1772 54.2954 99.4712C55.4039 101.765 57.0194 103.777 59.0197 105.355C59.6208 105.832 60.3441 106.13 61.1067 106.214C61.8693 106.298 62.6402 106.166 63.331 105.832C64.0218 105.498 64.6045 104.977 65.0123 104.327C65.42 103.677 65.6363 102.925 65.6364 102.158V68.0649L89.0965 91.525C89.4726 91.9045 89.9201 92.2058 90.4132 92.4116C90.9063 92.6175 91.4352 92.7237 91.9696 92.7242C92.4311 92.7237 92.8892 92.6457 93.3248 92.4933C94.0512 92.244 94.6918 91.7933 95.1719 91.1938C95.6519 90.5943 95.9517 89.8707 96.0361 89.1073C96.3349 86.577 96.0545 84.0119 95.2162 81.606C94.3779 79.2 93.0036 77.016 91.1972 75.2192ZM55.6881 21.9709C57.8018 21.9734 59.8283 22.8141 61.3229 24.3088C62.8176 25.8035 63.6583 27.83 63.6606 29.9438V47.6826L62.7796 46.8016C61.7248 45.7494 60.358 45.0665 58.8833 44.8547C57.4086 44.6429 55.905 44.9135 54.5966 45.6262V21.9709H55.6881ZM34.3957 44.0997C32.9027 42.6034 32.0642 40.5759 32.0642 38.4621C32.0642 36.3484 32.9027 34.3209 34.3957 32.8246L35.1672 32.0531L52.2533 49.1391C52.461 49.3468 52.7426 49.4634 53.0363 49.4635C53.33 49.4635 53.6117 49.3469 53.8194 49.1393L54.591 48.3679V48.3677C55.4699 47.4908 56.6607 46.9984 57.9021 46.9984C59.1436 46.9984 60.3344 47.4908 61.2133 48.3677L69.1771 56.3312L63.5397 61.9689C62.0446 63.4639 60.0167 64.3038 57.9023 64.3038C55.7879 64.3038 53.76 63.4639 52.2648 61.9689L34.3957 44.0997ZM63.4215 102.158C63.4215 102.509 63.3226 102.852 63.1361 103.15C62.9497 103.447 62.6833 103.685 62.3674 103.838C62.0515 103.991 61.6991 104.051 61.3504 104.013C61.0017 103.974 60.6709 103.838 60.396 103.62C58.6578 102.249 57.2541 100.5 56.2908 98.507C55.3276 96.5137 54.83 94.3274 54.8357 92.1134V66.0494C57.391 66.8514 60.1588 66.619 62.5446 65.4021H62.9736L63.4215 65.85L63.4215 102.158ZM93.8356 88.8534C93.7954 89.2019 93.6578 89.532 93.4385 89.8059C93.2192 90.0797 92.9272 90.2862 92.5959 90.4016C92.2646 90.517 91.9075 90.5367 91.5656 90.4584C91.2236 90.3801 90.9106 90.207 90.6626 89.9589L64.6724 63.9686L70.7435 57.8975L89.6312 76.7852C91.2008 78.3466 92.3949 80.2444 93.1233 82.3351C93.8517 84.4258 94.0952 86.6547 93.8356 88.8534Z" stroke="#285A43" stroke-width="2" mask="url(#path-1-outside-1_301_1804)"/>
<mask id="path-2-outside-2_301_1804" maskUnits="userSpaceOnUse" x="52.7208" y="51.1501" width="11" height="11" fill="black">
<rect fill="white" x="52.7208" y="51.1501" width="11" height="11"/>
<path d="M62.0836 56.3316C62.0836 55.3642 61.7482 54.4267 61.1345 53.6789C60.5208 52.9311 59.6667 52.4192 58.7179 52.2305C57.7691 52.0418 56.7842 52.1879 55.9311 52.6439C55.0779 53.0999 54.4093 53.8377 54.0391 54.7315C53.6689 55.6252 53.6201 56.6197 53.9009 57.5454C54.1817 58.4712 54.7749 59.2709 55.5793 59.8083C56.3836 60.3457 57.3495 60.5876 58.3122 60.4928C59.2749 60.3979 60.175 59.9722 60.859 59.2881C61.2485 58.9007 61.5572 58.44 61.7674 57.9325C61.9776 57.425 62.0851 56.8809 62.0836 56.3316ZM59.2927 57.722C58.9709 58.0437 58.5476 58.2439 58.0948 58.2885C57.642 58.3331 57.1878 58.2193 56.8095 57.9665C56.4312 57.7137 56.1523 57.3375 56.0202 56.9021C55.8882 56.4667 55.9112 55.999 56.0853 55.5787C56.2595 55.1583 56.574 54.8114 56.9753 54.5969C57.3765 54.3825 57.8398 54.3138 58.286 54.4026C58.7322 54.4914 59.1339 54.7322 59.4225 55.0839C59.7111 55.4357 59.8688 55.8766 59.8687 56.3316C59.8694 56.5899 59.8189 56.8459 59.72 57.0845C59.6211 57.3232 59.4759 57.5398 59.2927 57.722Z"/>
</mask>
<path d="M62.0836 56.3316C62.0836 55.3642 61.7482 54.4267 61.1345 53.6789C60.5208 52.9311 59.6667 52.4192 58.7179 52.2305C57.7691 52.0418 56.7842 52.1879 55.9311 52.6439C55.0779 53.0999 54.4093 53.8377 54.0391 54.7315C53.6689 55.6252 53.6201 56.6197 53.9009 57.5454C54.1817 58.4712 54.7749 59.2709 55.5793 59.8083C56.3836 60.3457 57.3495 60.5876 58.3122 60.4928C59.2749 60.3979 60.175 59.9722 60.859 59.2881C61.2485 58.9007 61.5572 58.44 61.7674 57.9325C61.9776 57.425 62.0851 56.8809 62.0836 56.3316ZM59.2927 57.722C58.9709 58.0437 58.5476 58.2439 58.0948 58.2885C57.642 58.3331 57.1878 58.2193 56.8095 57.9665C56.4312 57.7137 56.1523 57.3375 56.0202 56.9021C55.8882 56.4667 55.9112 55.999 56.0853 55.5787C56.2595 55.1583 56.574 54.8114 56.9753 54.5969C57.3765 54.3825 57.8398 54.3138 58.286 54.4026C58.7322 54.4914 59.1339 54.7322 59.4225 55.0839C59.7111 55.4357 59.8688 55.8766 59.8687 56.3316C59.8694 56.5899 59.8189 56.8459 59.72 57.0845C59.6211 57.3232 59.4759 57.5398 59.2927 57.722Z" fill="#285A43"/>
<path d="M62.0836 56.3316C62.0836 55.3642 61.7482 54.4267 61.1345 53.6789C60.5208 52.9311 59.6667 52.4192 58.7179 52.2305C57.7691 52.0418 56.7842 52.1879 55.9311 52.6439C55.0779 53.0999 54.4093 53.8377 54.0391 54.7315C53.6689 55.6252 53.6201 56.6197 53.9009 57.5454C54.1817 58.4712 54.7749 59.2709 55.5793 59.8083C56.3836 60.3457 57.3495 60.5876 58.3122 60.4928C59.2749 60.3979 60.175 59.9722 60.859 59.2881C61.2485 58.9007 61.5572 58.44 61.7674 57.9325C61.9776 57.425 62.0851 56.8809 62.0836 56.3316ZM59.2927 57.722C58.9709 58.0437 58.5476 58.2439 58.0948 58.2885C57.642 58.3331 57.1878 58.2193 56.8095 57.9665C56.4312 57.7137 56.1523 57.3375 56.0202 56.9021C55.8882 56.4667 55.9112 55.999 56.0853 55.5787C56.2595 55.1583 56.574 54.8114 56.9753 54.5969C57.3765 54.3825 57.8398 54.3138 58.286 54.4026C58.7322 54.4914 59.1339 54.7322 59.4225 55.0839C59.7111 55.4357 59.8688 55.8766 59.8687 56.3316C59.8694 56.5899 59.8189 56.8459 59.72 57.0845C59.6211 57.3232 59.4759 57.5398 59.2927 57.722Z" stroke="#285A43" stroke-width="2" mask="url(#path-2-outside-2_301_1804)"/>
</svg>
