<svg width="126" height="126" viewBox="0 0 126 126" fill="none" xmlns="http://www.w3.org/2000/svg">
<mask id="path-1-outside-1_301_1782" maskUnits="userSpaceOnUse" x="25.2527" y="75.8313" width="81" height="37" fill="black">
<rect fill="white" x="25.2527" y="75.8313" width="81" height="37"/>
<path d="M103.657 76.8313H101.983C98.9087 76.8351 95.9058 77.7579 93.36 79.4813C90.8142 81.2048 88.8418 83.65 87.6963 86.5029C86.5508 83.65 84.5785 81.2048 82.0327 79.4813C79.4869 77.7579 76.484 76.8351 73.4097 76.8313H71.7358C71.4421 76.8313 71.1604 76.948 70.9527 77.1556C70.7451 77.3633 70.6284 77.645 70.6284 77.9387V79.6128C70.633 83.6941 72.2563 87.6069 75.1422 90.4929C78.0281 93.3788 81.9409 95.0021 86.0222 95.0067H86.5889V102.366C81.1804 102.558 75.9231 104.202 71.3679 107.124C69.6189 108.244 67.5853 108.84 65.5083 108.84C63.4312 108.84 61.3977 108.244 59.6487 107.124C55.0936 104.202 49.8364 102.559 44.4281 102.366V95.0067H44.9946C49.0759 95.0021 52.9888 93.3788 55.8748 90.4929C58.7607 87.607 60.3841 83.6941 60.3887 79.6128V77.9387C60.3887 77.645 60.272 77.3633 60.0643 77.1556C59.8567 76.948 59.575 76.8313 59.2813 76.8313H57.6072C54.5329 76.835 51.53 77.7579 48.9842 79.4813C46.4385 81.2047 44.4661 83.6499 43.3206 86.5028C42.1752 83.6499 40.2028 81.2047 37.657 79.4813C35.1113 77.7579 32.1083 76.835 29.0341 76.8313H27.3601C27.0664 76.8313 26.7847 76.948 26.577 77.1556C26.3694 77.3633 26.2527 77.645 26.2527 77.9387V79.6128C26.2573 83.6941 27.8806 87.607 30.7666 90.4929C33.6525 93.3788 37.5653 95.0021 41.6466 95.0067H42.2132V102.366C36.8049 102.559 31.5478 104.202 26.9926 107.124C26.7455 107.282 26.5716 107.533 26.5091 107.82C26.4466 108.107 26.5007 108.407 26.6594 108.654C26.8182 108.901 27.0686 109.075 27.3556 109.137C27.6425 109.2 27.9426 109.146 28.1897 108.987C32.7066 106.096 37.9574 104.559 43.3205 104.559C48.6837 104.559 53.9345 106.096 58.4514 108.987C60.5577 110.336 63.0068 111.054 65.5083 111.054C68.0098 111.054 70.4588 110.337 72.5652 108.987C77.0822 106.096 82.3331 104.559 87.6963 104.559C93.0596 104.559 98.3105 106.096 102.827 108.987C102.95 109.068 103.087 109.123 103.231 109.15C103.375 109.177 103.522 109.175 103.666 109.145C103.809 109.114 103.945 109.056 104.065 108.973C104.185 108.889 104.288 108.783 104.367 108.66C104.446 108.537 104.5 108.399 104.526 108.255C104.551 108.111 104.548 107.963 104.516 107.82C104.484 107.677 104.425 107.542 104.34 107.423C104.256 107.303 104.148 107.201 104.024 107.124C99.4693 104.202 94.2121 102.558 88.8038 102.366V95.0067H89.3704C93.4517 95.0021 97.3646 93.3788 100.25 90.4929C103.136 87.6069 104.76 83.6941 104.764 79.6128V77.9387C104.764 77.645 104.648 77.3633 104.44 77.1556C104.232 76.948 103.951 76.8313 103.657 76.8313ZM57.6072 79.0461H58.1738V79.6128C58.1699 83.1069 56.7801 86.4568 54.3093 88.9275C51.8386 91.3982 48.4887 92.7879 44.9946 92.7918H44.4281V92.2254C44.432 88.7313 45.8218 85.3814 48.2925 82.9107C50.7632 80.4399 54.1131 79.0501 57.6072 79.0461ZM28.4675 79.6128V79.0461H29.0341C32.5282 79.0501 35.8781 80.4399 38.3488 82.9107C40.8195 85.3814 42.2093 88.7312 42.2132 92.2254V92.7918H41.6466C38.1525 92.7879 34.8027 91.3981 32.332 88.9274C29.8613 86.4568 28.4715 83.1069 28.4675 79.6128ZM72.8432 79.6128V79.0461H73.4096C76.9037 79.0501 80.2536 80.4399 82.7243 82.9106C85.1951 85.3814 86.5849 88.7312 86.5888 92.2254V92.7918H86.0221C82.5281 92.7879 79.1782 91.3981 76.7076 88.9274C74.2369 86.4567 72.8471 83.1069 72.8432 79.6128ZM102.549 79.6128C102.545 83.1069 101.156 86.4568 98.685 88.9274C96.2143 91.3981 92.8645 92.7879 89.3704 92.7918H88.8038V92.2254C88.8077 88.7312 90.1975 85.3814 92.6683 82.9106C95.139 80.4399 98.4889 79.0501 101.983 79.0461H102.549L102.549 79.6128Z"/>
</mask>
<path d="M103.657 76.8313H101.983C98.9087 76.8351 95.9058 77.7579 93.36 79.4813C90.8142 81.2048 88.8418 83.65 87.6963 86.5029C86.5508 83.65 84.5785 81.2048 82.0327 79.4813C79.4869 77.7579 76.484 76.8351 73.4097 76.8313H71.7358C71.4421 76.8313 71.1604 76.948 70.9527 77.1556C70.7451 77.3633 70.6284 77.645 70.6284 77.9387V79.6128C70.633 83.6941 72.2563 87.6069 75.1422 90.4929C78.0281 93.3788 81.9409 95.0021 86.0222 95.0067H86.5889V102.366C81.1804 102.558 75.9231 104.202 71.3679 107.124C69.6189 108.244 67.5853 108.84 65.5083 108.84C63.4312 108.84 61.3977 108.244 59.6487 107.124C55.0936 104.202 49.8364 102.559 44.4281 102.366V95.0067H44.9946C49.0759 95.0021 52.9888 93.3788 55.8748 90.4929C58.7607 87.607 60.3841 83.6941 60.3887 79.6128V77.9387C60.3887 77.645 60.272 77.3633 60.0643 77.1556C59.8567 76.948 59.575 76.8313 59.2813 76.8313H57.6072C54.5329 76.835 51.53 77.7579 48.9842 79.4813C46.4385 81.2047 44.4661 83.6499 43.3206 86.5028C42.1752 83.6499 40.2028 81.2047 37.657 79.4813C35.1113 77.7579 32.1083 76.835 29.0341 76.8313H27.3601C27.0664 76.8313 26.7847 76.948 26.577 77.1556C26.3694 77.3633 26.2527 77.645 26.2527 77.9387V79.6128C26.2573 83.6941 27.8806 87.607 30.7666 90.4929C33.6525 93.3788 37.5653 95.0021 41.6466 95.0067H42.2132V102.366C36.8049 102.559 31.5478 104.202 26.9926 107.124C26.7455 107.282 26.5716 107.533 26.5091 107.82C26.4466 108.107 26.5007 108.407 26.6594 108.654C26.8182 108.901 27.0686 109.075 27.3556 109.137C27.6425 109.2 27.9426 109.146 28.1897 108.987C32.7066 106.096 37.9574 104.559 43.3205 104.559C48.6837 104.559 53.9345 106.096 58.4514 108.987C60.5577 110.336 63.0068 111.054 65.5083 111.054C68.0098 111.054 70.4588 110.337 72.5652 108.987C77.0822 106.096 82.3331 104.559 87.6963 104.559C93.0596 104.559 98.3105 106.096 102.827 108.987C102.95 109.068 103.087 109.123 103.231 109.15C103.375 109.177 103.522 109.175 103.666 109.145C103.809 109.114 103.945 109.056 104.065 108.973C104.185 108.889 104.288 108.783 104.367 108.66C104.446 108.537 104.5 108.399 104.526 108.255C104.551 108.111 104.548 107.963 104.516 107.82C104.484 107.677 104.425 107.542 104.34 107.423C104.256 107.303 104.148 107.201 104.024 107.124C99.4693 104.202 94.2121 102.558 88.8038 102.366V95.0067H89.3704C93.4517 95.0021 97.3646 93.3788 100.25 90.4929C103.136 87.6069 104.76 83.6941 104.764 79.6128V77.9387C104.764 77.645 104.648 77.3633 104.44 77.1556C104.232 76.948 103.951 76.8313 103.657 76.8313ZM57.6072 79.0461H58.1738V79.6128C58.1699 83.1069 56.7801 86.4568 54.3093 88.9275C51.8386 91.3982 48.4887 92.7879 44.9946 92.7918H44.4281V92.2254C44.432 88.7313 45.8218 85.3814 48.2925 82.9107C50.7632 80.4399 54.1131 79.0501 57.6072 79.0461ZM28.4675 79.6128V79.0461H29.0341C32.5282 79.0501 35.8781 80.4399 38.3488 82.9107C40.8195 85.3814 42.2093 88.7312 42.2132 92.2254V92.7918H41.6466C38.1525 92.7879 34.8027 91.3981 32.332 88.9274C29.8613 86.4568 28.4715 83.1069 28.4675 79.6128ZM72.8432 79.6128V79.0461H73.4096C76.9037 79.0501 80.2536 80.4399 82.7243 82.9106C85.1951 85.3814 86.5849 88.7312 86.5888 92.2254V92.7918H86.0221C82.5281 92.7879 79.1782 91.3981 76.7076 88.9274C74.2369 86.4567 72.8471 83.1069 72.8432 79.6128ZM102.549 79.6128C102.545 83.1069 101.156 86.4568 98.685 88.9274C96.2143 91.3981 92.8645 92.7879 89.3704 92.7918H88.8038V92.2254C88.8077 88.7312 90.1975 85.3814 92.6683 82.9106C95.139 80.4399 98.4889 79.0501 101.983 79.0461H102.549L102.549 79.6128Z" fill="#285A43"/>
<path d="M103.657 76.8313H101.983C98.9087 76.8351 95.9058 77.7579 93.36 79.4813C90.8142 81.2048 88.8418 83.65 87.6963 86.5029C86.5508 83.65 84.5785 81.2048 82.0327 79.4813C79.4869 77.7579 76.484 76.8351 73.4097 76.8313H71.7358C71.4421 76.8313 71.1604 76.948 70.9527 77.1556C70.7451 77.3633 70.6284 77.645 70.6284 77.9387V79.6128C70.633 83.6941 72.2563 87.6069 75.1422 90.4929C78.0281 93.3788 81.9409 95.0021 86.0222 95.0067H86.5889V102.366C81.1804 102.558 75.9231 104.202 71.3679 107.124C69.6189 108.244 67.5853 108.84 65.5083 108.84C63.4312 108.84 61.3977 108.244 59.6487 107.124C55.0936 104.202 49.8364 102.559 44.4281 102.366V95.0067H44.9946C49.0759 95.0021 52.9888 93.3788 55.8748 90.4929C58.7607 87.607 60.3841 83.6941 60.3887 79.6128V77.9387C60.3887 77.645 60.272 77.3633 60.0643 77.1556C59.8567 76.948 59.575 76.8313 59.2813 76.8313H57.6072C54.5329 76.835 51.53 77.7579 48.9842 79.4813C46.4385 81.2047 44.4661 83.6499 43.3206 86.5028C42.1752 83.6499 40.2028 81.2047 37.657 79.4813C35.1113 77.7579 32.1083 76.835 29.0341 76.8313H27.3601C27.0664 76.8313 26.7847 76.948 26.577 77.1556C26.3694 77.3633 26.2527 77.645 26.2527 77.9387V79.6128C26.2573 83.6941 27.8806 87.607 30.7666 90.4929C33.6525 93.3788 37.5653 95.0021 41.6466 95.0067H42.2132V102.366C36.8049 102.559 31.5478 104.202 26.9926 107.124C26.7455 107.282 26.5716 107.533 26.5091 107.82C26.4466 108.107 26.5007 108.407 26.6594 108.654C26.8182 108.901 27.0686 109.075 27.3556 109.137C27.6425 109.2 27.9426 109.146 28.1897 108.987C32.7066 106.096 37.9574 104.559 43.3205 104.559C48.6837 104.559 53.9345 106.096 58.4514 108.987C60.5577 110.336 63.0068 111.054 65.5083 111.054C68.0098 111.054 70.4588 110.337 72.5652 108.987C77.0822 106.096 82.3331 104.559 87.6963 104.559C93.0596 104.559 98.3105 106.096 102.827 108.987C102.95 109.068 103.087 109.123 103.231 109.15C103.375 109.177 103.522 109.175 103.666 109.145C103.809 109.114 103.945 109.056 104.065 108.973C104.185 108.889 104.288 108.783 104.367 108.66C104.446 108.537 104.5 108.399 104.526 108.255C104.551 108.111 104.548 107.963 104.516 107.82C104.484 107.677 104.425 107.542 104.34 107.423C104.256 107.303 104.148 107.201 104.024 107.124C99.4693 104.202 94.2121 102.558 88.8038 102.366V95.0067H89.3704C93.4517 95.0021 97.3646 93.3788 100.25 90.4929C103.136 87.6069 104.76 83.6941 104.764 79.6128V77.9387C104.764 77.645 104.648 77.3633 104.44 77.1556C104.232 76.948 103.951 76.8313 103.657 76.8313ZM57.6072 79.0461H58.1738V79.6128C58.1699 83.1069 56.7801 86.4568 54.3093 88.9275C51.8386 91.3982 48.4887 92.7879 44.9946 92.7918H44.4281V92.2254C44.432 88.7313 45.8218 85.3814 48.2925 82.9107C50.7632 80.4399 54.1131 79.0501 57.6072 79.0461ZM28.4675 79.6128V79.0461H29.0341C32.5282 79.0501 35.8781 80.4399 38.3488 82.9107C40.8195 85.3814 42.2093 88.7312 42.2132 92.2254V92.7918H41.6466C38.1525 92.7879 34.8027 91.3981 32.332 88.9274C29.8613 86.4568 28.4715 83.1069 28.4675 79.6128ZM72.8432 79.6128V79.0461H73.4096C76.9037 79.0501 80.2536 80.4399 82.7243 82.9106C85.1951 85.3814 86.5849 88.7312 86.5888 92.2254V92.7918H86.0221C82.5281 92.7879 79.1782 91.3981 76.7076 88.9274C74.2369 86.4567 72.8471 83.1069 72.8432 79.6128ZM102.549 79.6128C102.545 83.1069 101.156 86.4568 98.685 88.9274C96.2143 91.3981 92.8645 92.7879 89.3704 92.7918H88.8038V92.2254C88.8077 88.7312 90.1975 85.3814 92.6683 82.9106C95.139 80.4399 98.4889 79.0501 101.983 79.0461H102.549L102.549 79.6128Z" stroke="#285A43" stroke-width="2" mask="url(#path-1-outside-1_301_1782)"/>
<mask id="path-2-outside-2_301_1782" maskUnits="userSpaceOnUse" x="18" y="13.9463" width="55" height="50" fill="black">
<rect fill="white" x="18" y="13.9463" width="55" height="50"/>
<path d="M37.3176 61.0067C37.7442 61.4351 38.2512 61.775 38.8096 62.0067C39.3679 62.2385 39.9666 62.3577 40.5711 62.3573C40.7362 62.3572 40.901 62.3484 41.0651 62.3309C41.7493 62.2596 42.4087 62.0355 42.9946 61.675C43.5805 61.3146 44.0779 60.827 44.45 60.2485L48.839 53.4554L66.059 51.3108L69.817 53.6825C69.9845 53.7882 70.1773 53.8471 70.3753 53.8529C70.5733 53.8588 70.7693 53.8114 70.9427 53.7157C71.1162 53.6201 71.2608 53.4796 71.3615 53.3091C71.4623 53.1385 71.5154 52.9441 71.5154 52.746V42.7955C71.5154 42.5974 71.4622 42.403 71.3615 42.2324C71.2608 42.0618 71.1162 41.9214 70.9427 41.8258C70.7693 41.7301 70.5733 41.6827 70.3753 41.6886C70.1773 41.6944 69.9845 41.7533 69.817 41.859L66.059 44.2305L55.6377 42.9326L58.9388 37.8234C59.0762 37.6107 59.1366 37.3572 59.1098 37.1054C59.0831 36.8535 58.9708 36.6185 58.7917 36.4394L44.9177 22.5651L44.9162 22.5639L39.6812 17.3287C38.9259 16.5734 38.0293 15.9742 37.0424 15.5654C36.0556 15.1567 34.9979 14.9463 33.9298 14.9463C32.8616 14.9463 31.8039 15.1567 30.8171 15.5654C29.8303 15.9742 28.9336 16.5734 28.1784 17.3287L25.9461 19.5607C24.423 21.0873 23.5677 23.1557 23.5677 25.3121C23.5677 27.4685 24.423 29.5369 25.9461 31.0634L27.597 32.7144L21.1085 36.9065C20.5309 37.2798 20.044 37.7775 19.6837 38.3632C19.3233 38.949 19.0985 39.6079 19.0258 40.2918C18.9531 40.9756 19.0343 41.6671 19.2635 42.3155C19.4927 42.9639 19.864 43.5529 20.3503 44.0392L37.3175 61.0064L37.3176 61.0067ZM66.1785 46.4773C66.4325 46.5084 66.6895 46.451 66.9062 46.3149L69.3005 44.8039V50.7375L66.9062 49.2264C66.6896 49.09 66.4325 49.0326 66.1785 49.0639L50.4072 51.0282L54.3031 44.9983L66.1785 46.4773ZM27.5122 29.4976C26.4039 28.3866 25.7814 26.8814 25.7814 25.3122C25.7814 23.7429 26.4039 22.2377 27.5122 21.1268L29.7445 18.8947C30.8545 17.7848 32.36 17.1612 33.9297 17.1612C35.4994 17.1612 37.0049 17.7848 38.1149 18.8947L42.3822 23.162L29.4997 31.4851L27.5122 29.4976ZM21.2283 40.5259C21.2653 40.1703 21.3818 39.8277 21.5691 39.5232C21.7564 39.2188 22.0097 38.9603 22.3103 38.7669L43.9841 24.7638L56.593 37.3728L42.5897 59.0463C42.3957 59.3464 42.1371 59.5994 41.8328 59.7867C41.5284 59.974 41.186 60.0908 40.8307 60.1285C40.4753 60.1663 40.116 60.1241 39.7791 60.005C39.4421 59.8859 39.1361 59.6929 38.8835 59.4402L38.8836 59.4404L21.9164 42.4732C21.6631 42.221 21.4698 41.915 21.3507 41.5779C21.2316 41.2408 21.1897 40.8813 21.2283 40.5259Z"/>
</mask>
<path d="M37.3176 61.0067C37.7442 61.4351 38.2512 61.775 38.8096 62.0067C39.3679 62.2385 39.9666 62.3577 40.5711 62.3573C40.7362 62.3572 40.901 62.3484 41.0651 62.3309C41.7493 62.2596 42.4087 62.0355 42.9946 61.675C43.5805 61.3146 44.0779 60.827 44.45 60.2485L48.839 53.4554L66.059 51.3108L69.817 53.6825C69.9845 53.7882 70.1773 53.8471 70.3753 53.8529C70.5733 53.8588 70.7693 53.8114 70.9427 53.7157C71.1162 53.6201 71.2608 53.4796 71.3615 53.3091C71.4623 53.1385 71.5154 52.9441 71.5154 52.746V42.7955C71.5154 42.5974 71.4622 42.403 71.3615 42.2324C71.2608 42.0618 71.1162 41.9214 70.9427 41.8258C70.7693 41.7301 70.5733 41.6827 70.3753 41.6886C70.1773 41.6944 69.9845 41.7533 69.817 41.859L66.059 44.2305L55.6377 42.9326L58.9388 37.8234C59.0762 37.6107 59.1366 37.3572 59.1098 37.1054C59.0831 36.8535 58.9708 36.6185 58.7917 36.4394L44.9177 22.5651L44.9162 22.5639L39.6812 17.3287C38.9259 16.5734 38.0293 15.9742 37.0424 15.5654C36.0556 15.1567 34.9979 14.9463 33.9298 14.9463C32.8616 14.9463 31.8039 15.1567 30.8171 15.5654C29.8303 15.9742 28.9336 16.5734 28.1784 17.3287L25.9461 19.5607C24.423 21.0873 23.5677 23.1557 23.5677 25.3121C23.5677 27.4685 24.423 29.5369 25.9461 31.0634L27.597 32.7144L21.1085 36.9065C20.5309 37.2798 20.044 37.7775 19.6837 38.3632C19.3233 38.949 19.0985 39.6079 19.0258 40.2918C18.9531 40.9756 19.0343 41.6671 19.2635 42.3155C19.4927 42.9639 19.864 43.5529 20.3503 44.0392L37.3175 61.0064L37.3176 61.0067ZM66.1785 46.4773C66.4325 46.5084 66.6895 46.451 66.9062 46.3149L69.3005 44.8039V50.7375L66.9062 49.2264C66.6896 49.09 66.4325 49.0326 66.1785 49.0639L50.4072 51.0282L54.3031 44.9983L66.1785 46.4773ZM27.5122 29.4976C26.4039 28.3866 25.7814 26.8814 25.7814 25.3122C25.7814 23.7429 26.4039 22.2377 27.5122 21.1268L29.7445 18.8947C30.8545 17.7848 32.36 17.1612 33.9297 17.1612C35.4994 17.1612 37.0049 17.7848 38.1149 18.8947L42.3822 23.162L29.4997 31.4851L27.5122 29.4976ZM21.2283 40.5259C21.2653 40.1703 21.3818 39.8277 21.5691 39.5232C21.7564 39.2188 22.0097 38.9603 22.3103 38.7669L43.9841 24.7638L56.593 37.3728L42.5897 59.0463C42.3957 59.3464 42.1371 59.5994 41.8328 59.7867C41.5284 59.974 41.186 60.0908 40.8307 60.1285C40.4753 60.1663 40.116 60.1241 39.7791 60.005C39.4421 59.8859 39.1361 59.6929 38.8835 59.4402L38.8836 59.4404L21.9164 42.4732C21.6631 42.221 21.4698 41.915 21.3507 41.5779C21.2316 41.2408 21.1897 40.8813 21.2283 40.5259Z" fill="#285A43"/>
<path d="M37.3176 61.0067C37.7442 61.4351 38.2512 61.775 38.8096 62.0067C39.3679 62.2385 39.9666 62.3577 40.5711 62.3573C40.7362 62.3572 40.901 62.3484 41.0651 62.3309C41.7493 62.2596 42.4087 62.0355 42.9946 61.675C43.5805 61.3146 44.0779 60.827 44.45 60.2485L48.839 53.4554L66.059 51.3108L69.817 53.6825C69.9845 53.7882 70.1773 53.8471 70.3753 53.8529C70.5733 53.8588 70.7693 53.8114 70.9427 53.7157C71.1162 53.6201 71.2608 53.4796 71.3615 53.3091C71.4623 53.1385 71.5154 52.9441 71.5154 52.746V42.7955C71.5154 42.5974 71.4622 42.403 71.3615 42.2324C71.2608 42.0618 71.1162 41.9214 70.9427 41.8258C70.7693 41.7301 70.5733 41.6827 70.3753 41.6886C70.1773 41.6944 69.9845 41.7533 69.817 41.859L66.059 44.2305L55.6377 42.9326L58.9388 37.8234C59.0762 37.6107 59.1366 37.3572 59.1098 37.1054C59.0831 36.8535 58.9708 36.6185 58.7917 36.4394L44.9177 22.5651L44.9162 22.5639L39.6812 17.3287C38.9259 16.5734 38.0293 15.9742 37.0424 15.5654C36.0556 15.1567 34.9979 14.9463 33.9298 14.9463C32.8616 14.9463 31.8039 15.1567 30.8171 15.5654C29.8303 15.9742 28.9336 16.5734 28.1784 17.3287L25.9461 19.5607C24.423 21.0873 23.5677 23.1557 23.5677 25.3121C23.5677 27.4685 24.423 29.5369 25.9461 31.0634L27.597 32.7144L21.1085 36.9065C20.5309 37.2798 20.044 37.7775 19.6837 38.3632C19.3233 38.949 19.0985 39.6079 19.0258 40.2918C18.9531 40.9756 19.0343 41.6671 19.2635 42.3155C19.4927 42.9639 19.864 43.5529 20.3503 44.0392L37.3175 61.0064L37.3176 61.0067ZM66.1785 46.4773C66.4325 46.5084 66.6895 46.451 66.9062 46.3149L69.3005 44.8039V50.7375L66.9062 49.2264C66.6896 49.09 66.4325 49.0326 66.1785 49.0639L50.4072 51.0282L54.3031 44.9983L66.1785 46.4773ZM27.5122 29.4976C26.4039 28.3866 25.7814 26.8814 25.7814 25.3122C25.7814 23.7429 26.4039 22.2377 27.5122 21.1268L29.7445 18.8947C30.8545 17.7848 32.36 17.1612 33.9297 17.1612C35.4994 17.1612 37.0049 17.7848 38.1149 18.8947L42.3822 23.162L29.4997 31.4851L27.5122 29.4976ZM21.2283 40.5259C21.2653 40.1703 21.3818 39.8277 21.5691 39.5232C21.7564 39.2188 22.0097 38.9603 22.3103 38.7669L43.9841 24.7638L56.593 37.3728L42.5897 59.0463C42.3957 59.3464 42.1371 59.5994 41.8328 59.7867C41.5284 59.974 41.186 60.0908 40.8307 60.1285C40.4753 60.1663 40.116 60.1241 39.7791 60.005C39.4421 59.8859 39.1361 59.6929 38.8835 59.4402L38.8836 59.4404L21.9164 42.4732C21.6631 42.221 21.4698 41.915 21.3507 41.5779C21.2316 41.2408 21.1897 40.8813 21.2283 40.5259Z" stroke="#285A43" stroke-width="2" mask="url(#path-2-outside-2_301_1782)"/>
<mask id="path-3-outside-3_301_1782" maskUnits="userSpaceOnUse" x="84.1493" y="54.783" width="8" height="8" fill="black">
<rect fill="white" x="84.1493" y="54.783" width="8" height="8"/>
<path d="M88.8754 61.2865C89.0445 61.5266 89.3021 61.6896 89.5915 61.7398C89.8809 61.79 90.1784 61.7231 90.4185 61.5539C90.6586 61.3848 90.8217 61.1272 90.8718 60.8378C90.922 60.5484 90.8551 60.2509 90.686 60.0108C89.6288 58.5229 88.3749 57.185 86.9585 56.0337C86.846 55.9415 86.7164 55.8724 86.5772 55.8303C86.438 55.7883 86.2919 55.774 86.1472 55.7884C86.0024 55.8028 85.862 55.8456 85.7338 55.9142C85.6056 55.9829 85.4922 56.0762 85.4 56.1887C85.2139 56.4159 85.1257 56.7078 85.1547 57C85.1838 57.2923 85.3278 57.5611 85.555 57.7472C86.8166 58.7716 87.9335 59.9622 88.8754 61.2865Z"/>
</mask>
<path d="M88.8754 61.2865C89.0445 61.5266 89.3021 61.6896 89.5915 61.7398C89.8809 61.79 90.1784 61.7231 90.4185 61.5539C90.6586 61.3848 90.8217 61.1272 90.8718 60.8378C90.922 60.5484 90.8551 60.2509 90.686 60.0108C89.6288 58.5229 88.3749 57.185 86.9585 56.0337C86.846 55.9415 86.7164 55.8724 86.5772 55.8303C86.438 55.7883 86.2919 55.774 86.1472 55.7884C86.0024 55.8028 85.862 55.8456 85.7338 55.9142C85.6056 55.9829 85.4922 56.0762 85.4 56.1887C85.2139 56.4159 85.1257 56.7078 85.1547 57C85.1838 57.2923 85.3278 57.5611 85.555 57.7472C86.8166 58.7716 87.9335 59.9622 88.8754 61.2865Z" fill="#285A43"/>
<path d="M88.8754 61.2865C89.0445 61.5266 89.3021 61.6896 89.5915 61.7398C89.8809 61.79 90.1784 61.7231 90.4185 61.5539C90.6586 61.3848 90.8217 61.1272 90.8718 60.8378C90.922 60.5484 90.8551 60.2509 90.686 60.0108C89.6288 58.5229 88.3749 57.185 86.9585 56.0337C86.846 55.9415 86.7164 55.8724 86.5772 55.8303C86.438 55.7883 86.2919 55.774 86.1472 55.7884C86.0024 55.8028 85.862 55.8456 85.7338 55.9142C85.6056 55.9829 85.4922 56.0762 85.4 56.1887C85.2139 56.4159 85.1257 56.7078 85.1547 57C85.1838 57.2923 85.3278 57.5611 85.555 57.7472C86.8166 58.7716 87.9335 59.9622 88.8754 61.2865Z" stroke="#285A43" stroke-width="2" mask="url(#path-3-outside-3_301_1782)"/>
<mask id="path-4-outside-4_301_1782" maskUnits="userSpaceOnUse" x="89.98" y="63.1387" width="6" height="10" fill="black">
<rect fill="white" x="89.98" y="63.1387" width="6" height="10"/>
<path d="M91.7429 64.1936C91.6047 64.2389 91.4768 64.3108 91.3664 64.4055C91.256 64.5002 91.1653 64.6157 91.0996 64.7454C91.0338 64.8751 90.9943 65.0165 90.9832 65.1615C90.9721 65.3065 90.9897 65.4522 91.035 65.5904C91.5321 67.1357 91.8203 68.7406 91.8917 70.3623C91.9056 70.6462 92.028 70.9139 92.2338 71.11C92.4395 71.3061 92.7127 71.4157 92.997 71.4159C93.0152 71.4159 93.0335 71.4154 93.0518 71.4147C93.3451 71.4004 93.6208 71.2701 93.8181 71.0526C94.0155 70.835 94.1184 70.548 94.1042 70.2547C94.023 68.4353 93.6986 66.635 93.1397 64.9017C93.0945 64.7634 93.0225 64.6355 92.9279 64.5251C92.8332 64.4147 92.7177 64.324 92.588 64.2583C92.4583 64.1925 92.3169 64.153 92.1719 64.1419C92.0269 64.1308 91.8811 64.1484 91.7429 64.1936Z"/>
</mask>
<path d="M91.7429 64.1936C91.6047 64.2389 91.4768 64.3108 91.3664 64.4055C91.256 64.5002 91.1653 64.6157 91.0996 64.7454C91.0338 64.8751 90.9943 65.0165 90.9832 65.1615C90.9721 65.3065 90.9897 65.4522 91.035 65.5904C91.5321 67.1357 91.8203 68.7406 91.8917 70.3623C91.9056 70.6462 92.028 70.9139 92.2338 71.11C92.4395 71.3061 92.7127 71.4157 92.997 71.4159C93.0152 71.4159 93.0335 71.4154 93.0518 71.4147C93.3451 71.4004 93.6208 71.2701 93.8181 71.0526C94.0155 70.835 94.1184 70.548 94.1042 70.2547C94.023 68.4353 93.6986 66.635 93.1397 64.9017C93.0945 64.7634 93.0225 64.6355 92.9279 64.5251C92.8332 64.4147 92.7177 64.324 92.588 64.2583C92.4583 64.1925 92.3169 64.153 92.1719 64.1419C92.0269 64.1308 91.8811 64.1484 91.7429 64.1936Z" fill="#285A43"/>
<path d="M91.7429 64.1936C91.6047 64.2389 91.4768 64.3108 91.3664 64.4055C91.256 64.5002 91.1653 64.6157 91.0996 64.7454C91.0338 64.8751 90.9943 65.0165 90.9832 65.1615C90.9721 65.3065 90.9897 65.4522 91.035 65.5904C91.5321 67.1357 91.8203 68.7406 91.8917 70.3623C91.9056 70.6462 92.028 70.9139 92.2338 71.11C92.4395 71.3061 92.7127 71.4157 92.997 71.4159C93.0152 71.4159 93.0335 71.4154 93.0518 71.4147C93.3451 71.4004 93.6208 71.2701 93.8181 71.0526C94.0155 70.835 94.1184 70.548 94.1042 70.2547C94.023 68.4353 93.6986 66.635 93.1397 64.9017C93.0945 64.7634 93.0225 64.6355 92.9279 64.5251C92.8332 64.4147 92.7177 64.324 92.588 64.2583C92.4583 64.1925 92.3169 64.153 92.1719 64.1419C92.0269 64.1308 91.8811 64.1484 91.7429 64.1936Z" stroke="#285A43" stroke-width="2" mask="url(#path-4-outside-4_301_1782)"/>
<mask id="path-5-outside-5_301_1782" maskUnits="userSpaceOnUse" x="74.9688" y="50.1687" width="10" height="7" fill="black">
<rect fill="white" x="74.9688" y="50.1687" width="10" height="7"/>
<path d="M76.8324 53.3564C78.4203 53.7623 79.9584 54.3429 81.4185 55.0875C81.5486 55.1526 81.6901 55.1915 81.8352 55.2019C81.9803 55.2123 82.1259 55.1941 82.2639 55.1482C82.402 55.1023 82.5296 55.0297 82.6395 54.9345C82.7495 54.8393 82.8396 54.7234 82.9047 54.5933C82.9698 54.4633 83.0087 54.3217 83.0192 54.1767C83.0296 54.0316 83.0113 53.8859 82.9655 53.7479C82.9196 53.6099 82.847 53.4823 82.7518 53.3724C82.6566 53.2624 82.5406 53.1723 82.4106 53.1072C80.7874 52.2766 79.0746 51.6343 77.3056 51.1927C77.0195 51.1321 76.7211 51.1872 76.4754 51.3458C76.2297 51.5045 76.0568 51.7538 75.9943 52.0395C75.9318 52.3252 75.9849 52.624 76.1419 52.8707C76.2989 53.1174 76.5471 53.292 76.8324 53.3564Z"/>
</mask>
<path d="M76.8324 53.3564C78.4203 53.7623 79.9584 54.3429 81.4185 55.0875C81.5486 55.1526 81.6901 55.1915 81.8352 55.2019C81.9803 55.2123 82.1259 55.1941 82.2639 55.1482C82.402 55.1023 82.5296 55.0297 82.6395 54.9345C82.7495 54.8393 82.8396 54.7234 82.9047 54.5933C82.9698 54.4633 83.0087 54.3217 83.0192 54.1767C83.0296 54.0316 83.0113 53.8859 82.9655 53.7479C82.9196 53.6099 82.847 53.4823 82.7518 53.3724C82.6566 53.2624 82.5406 53.1723 82.4106 53.1072C80.7874 52.2766 79.0746 51.6343 77.3056 51.1927C77.0195 51.1321 76.7211 51.1872 76.4754 51.3458C76.2297 51.5045 76.0568 51.7538 75.9943 52.0395C75.9318 52.3252 75.9849 52.624 76.1419 52.8707C76.2989 53.1174 76.5471 53.292 76.8324 53.3564Z" fill="#285A43"/>
<path d="M76.8324 53.3564C78.4203 53.7623 79.9584 54.3429 81.4185 55.0875C81.5486 55.1526 81.6901 55.1915 81.8352 55.2019C81.9803 55.2123 82.1259 55.1941 82.2639 55.1482C82.402 55.1023 82.5296 55.0297 82.6395 54.9345C82.7495 54.8393 82.8396 54.7234 82.9047 54.5933C82.9698 54.4633 83.0087 54.3217 83.0192 54.1767C83.0296 54.0316 83.0113 53.8859 82.9655 53.7479C82.9196 53.6099 82.847 53.4823 82.7518 53.3724C82.6566 53.2624 82.5406 53.1723 82.4106 53.1072C80.7874 52.2766 79.0746 51.6343 77.3056 51.1927C77.0195 51.1321 76.7211 51.1872 76.4754 51.3458C76.2297 51.5045 76.0568 51.7538 75.9943 52.0395C75.9318 52.3252 75.9849 52.624 76.1419 52.8707C76.2989 53.1174 76.5471 53.292 76.8324 53.3564Z" stroke="#285A43" stroke-width="2" mask="url(#path-5-outside-5_301_1782)"/>
<mask id="path-6-outside-6_301_1782" maskUnits="userSpaceOnUse" x="95.6766" y="48.4683" width="9" height="8" fill="black">
<rect fill="white" x="95.6766" y="48.4683" width="9" height="8"/>
<path d="M97.1223 51.4637C98.4515 52.4269 99.6698 53.5344 100.755 54.766C100.949 54.9864 101.223 55.1208 101.516 55.1395C101.809 55.1581 102.098 55.0596 102.318 54.8655C102.539 54.6714 102.673 54.3977 102.692 54.1046C102.71 53.8114 102.612 53.5229 102.418 53.3024C101.224 51.9481 99.8842 50.7302 98.4225 49.6708C98.1846 49.5029 97.89 49.4355 97.6028 49.4832C97.3155 49.5309 97.0585 49.6898 96.8876 49.9256C96.7166 50.1613 96.6454 50.4549 96.6893 50.7428C96.7333 51.0307 96.8888 51.2897 97.1223 51.4637Z"/>
</mask>
<path d="M97.1223 51.4637C98.4515 52.4269 99.6698 53.5344 100.755 54.766C100.949 54.9864 101.223 55.1208 101.516 55.1395C101.809 55.1581 102.098 55.0596 102.318 54.8655C102.539 54.6714 102.673 54.3977 102.692 54.1046C102.71 53.8114 102.612 53.5229 102.418 53.3024C101.224 51.9481 99.8842 50.7302 98.4225 49.6708C98.1846 49.5029 97.89 49.4355 97.6028 49.4832C97.3155 49.5309 97.0585 49.6898 96.8876 49.9256C96.7166 50.1613 96.6454 50.4549 96.6893 50.7428C96.7333 51.0307 96.8888 51.2897 97.1223 51.4637Z" fill="#285A43"/>
<path d="M97.1223 51.4637C98.4515 52.4269 99.6698 53.5344 100.755 54.766C100.949 54.9864 101.223 55.1208 101.516 55.1395C101.809 55.1581 102.098 55.0596 102.318 54.8655C102.539 54.6714 102.673 54.3977 102.692 54.1046C102.71 53.8114 102.612 53.5229 102.418 53.3024C101.224 51.9481 99.8842 50.7302 98.4225 49.6708C98.1846 49.5029 97.89 49.4355 97.6028 49.4832C97.3155 49.5309 97.0585 49.6898 96.8876 49.9256C96.7166 50.1613 96.6454 50.4549 96.6893 50.7428C96.7333 51.0307 96.8888 51.2897 97.1223 51.4637Z" stroke="#285A43" stroke-width="2" mask="url(#path-6-outside-6_301_1782)"/>
<mask id="path-7-outside-7_301_1782" maskUnits="userSpaceOnUse" x="86.3182" y="44.2051" width="10" height="6" fill="black">
<rect fill="white" x="86.3182" y="44.2051" width="10" height="6"/>
<path d="M88.1515 47.3854C89.7618 47.7848 91.3337 48.3256 92.8489 49.0016C92.9816 49.0617 93.1249 49.0951 93.2705 49.0997C93.4161 49.1043 93.5612 49.0802 93.6975 49.0286C93.8337 48.9771 93.9585 48.8992 94.0646 48.7993C94.1707 48.6995 94.2561 48.5797 94.3158 48.4468C94.3755 48.3139 94.4084 48.1705 94.4127 48.0249C94.4169 47.8793 94.3923 47.7342 94.3404 47.5981C94.2885 47.462 94.2102 47.3375 94.11 47.2316C94.0099 47.1258 93.8899 47.0408 93.7568 46.9815C92.1223 46.2518 90.4266 45.668 88.6893 45.2369C88.405 45.1672 88.1046 45.213 87.8539 45.3641C87.6031 45.5153 87.4225 45.7596 87.3514 46.0436C87.2803 46.3276 87.3246 46.6282 87.4745 46.8796C87.6244 47.1311 87.8678 47.313 88.1515 47.3854Z"/>
</mask>
<path d="M88.1515 47.3854C89.7618 47.7848 91.3337 48.3256 92.8489 49.0016C92.9816 49.0617 93.1249 49.0951 93.2705 49.0997C93.4161 49.1043 93.5612 49.0802 93.6975 49.0286C93.8337 48.9771 93.9585 48.8992 94.0646 48.7993C94.1707 48.6995 94.2561 48.5797 94.3158 48.4468C94.3755 48.3139 94.4084 48.1705 94.4127 48.0249C94.4169 47.8793 94.3923 47.7342 94.3404 47.5981C94.2885 47.462 94.2102 47.3375 94.11 47.2316C94.0099 47.1258 93.8899 47.0408 93.7568 46.9815C92.1223 46.2518 90.4266 45.668 88.6893 45.2369C88.405 45.1672 88.1046 45.213 87.8539 45.3641C87.6031 45.5153 87.4225 45.7596 87.3514 46.0436C87.2803 46.3276 87.3246 46.6282 87.4745 46.8796C87.6244 47.1311 87.8678 47.313 88.1515 47.3854Z" fill="#285A43"/>
<path d="M88.1515 47.3854C89.7618 47.7848 91.3337 48.3256 92.8489 49.0016C92.9816 49.0617 93.1249 49.0951 93.2705 49.0997C93.4161 49.1043 93.5612 49.0802 93.6975 49.0286C93.8337 48.9771 93.9585 48.8992 94.0646 48.7993C94.1707 48.6995 94.2561 48.5797 94.3158 48.4468C94.3755 48.3139 94.4084 48.1705 94.4127 48.0249C94.4169 47.8793 94.3923 47.7342 94.3404 47.5981C94.2885 47.462 94.2102 47.3375 94.11 47.2316C94.0099 47.1258 93.8899 47.0408 93.7568 46.9815C92.1223 46.2518 90.4266 45.668 88.6893 45.2369C88.405 45.1672 88.1046 45.213 87.8539 45.3641C87.6031 45.5153 87.4225 45.7596 87.3514 46.0436C87.2803 46.3276 87.3246 46.6282 87.4745 46.8796C87.6244 47.1311 87.8678 47.313 88.1515 47.3854Z" stroke="#285A43" stroke-width="2" mask="url(#path-7-outside-7_301_1782)"/>
<mask id="path-8-outside-8_301_1782" maskUnits="userSpaceOnUse" x="102.444" y="56.1409" width="7" height="9" fill="black">
<rect fill="white" x="102.444" y="56.1409" width="7" height="9"/>
<path d="M107.669 62.6189C107.105 60.9197 106.385 59.2763 105.519 57.7095C105.448 57.5825 105.353 57.4706 105.239 57.3803C105.125 57.29 104.995 57.223 104.855 57.1832C104.715 57.1434 104.568 57.1315 104.424 57.1482C104.28 57.165 104.14 57.21 104.013 57.2808C103.886 57.3515 103.774 57.4466 103.683 57.5606C103.593 57.6746 103.526 57.8053 103.486 57.9452C103.447 58.085 103.435 58.2314 103.451 58.3759C103.468 58.5203 103.513 58.6601 103.584 58.7871C104.384 60.2343 105.048 61.7523 105.568 63.3216C105.661 63.6001 105.861 63.8303 106.124 63.9613C106.387 64.0924 106.691 64.1136 106.97 64.0205C107.248 63.9273 107.478 63.7273 107.609 63.4644C107.74 63.2016 107.762 62.8974 107.669 62.6189Z"/>
</mask>
<path d="M107.669 62.6189C107.105 60.9197 106.385 59.2763 105.519 57.7095C105.448 57.5825 105.353 57.4706 105.239 57.3803C105.125 57.29 104.995 57.223 104.855 57.1832C104.715 57.1434 104.568 57.1315 104.424 57.1482C104.28 57.165 104.14 57.21 104.013 57.2808C103.886 57.3515 103.774 57.4466 103.683 57.5606C103.593 57.6746 103.526 57.8053 103.486 57.9452C103.447 58.085 103.435 58.2314 103.451 58.3759C103.468 58.5203 103.513 58.6601 103.584 58.7871C104.384 60.2343 105.048 61.7523 105.568 63.3216C105.661 63.6001 105.861 63.8303 106.124 63.9613C106.387 64.0924 106.691 64.1136 106.97 64.0205C107.248 63.9273 107.478 63.7273 107.609 63.4644C107.74 63.2016 107.762 62.8974 107.669 62.6189Z" fill="#285A43"/>
<path d="M107.669 62.6189C107.105 60.9197 106.385 59.2763 105.519 57.7095C105.448 57.5825 105.353 57.4706 105.239 57.3803C105.125 57.29 104.995 57.223 104.855 57.1832C104.715 57.1434 104.568 57.1315 104.424 57.1482C104.28 57.165 104.14 57.21 104.013 57.2808C103.886 57.3515 103.774 57.4466 103.683 57.5606C103.593 57.6746 103.526 57.8053 103.486 57.9452C103.447 58.085 103.435 58.2314 103.451 58.3759C103.468 58.5203 103.513 58.6601 103.584 58.7871C104.384 60.2343 105.048 61.7523 105.568 63.3216C105.661 63.6001 105.861 63.8303 106.124 63.9613C106.387 64.0924 106.691 64.1136 106.97 64.0205C107.248 63.9273 107.478 63.7273 107.609 63.4644C107.74 63.2016 107.762 62.8974 107.669 62.6189Z" stroke="#285A43" stroke-width="2" mask="url(#path-8-outside-8_301_1782)"/>
<mask id="path-9-outside-9_301_1782" maskUnits="userSpaceOnUse" x="76.0597" y="43.2021" width="10" height="5" fill="black">
<rect fill="white" x="76.0597" y="43.2021" width="10" height="5"/>
<path d="M78.2738 46.4944C78.2812 46.4937 79.0269 46.417 80.2553 46.417C81.2241 46.417 82.2226 46.4634 83.2232 46.555C83.2577 46.5581 83.2917 46.5595 83.3254 46.5595C83.6103 46.5593 83.8841 46.4493 84.09 46.2523C84.2959 46.0553 84.418 45.7866 84.4308 45.502C84.4436 45.2174 84.3463 44.9387 84.159 44.724C83.9717 44.5094 83.7088 44.3751 83.4251 44.3492C82.3576 44.2517 81.2912 44.2021 80.2554 44.2021C78.8973 44.2021 78.0742 44.2884 78.0398 44.292C77.7498 44.3256 77.4848 44.4723 77.3024 44.7002C77.1201 44.9282 77.035 45.2189 77.0659 45.5092C77.0968 45.7995 77.241 46.0658 77.4672 46.2503C77.6934 46.4348 77.9833 46.5225 78.2738 46.4944Z"/>
</mask>
<path d="M78.2738 46.4944C78.2812 46.4937 79.0269 46.417 80.2553 46.417C81.2241 46.417 82.2226 46.4634 83.2232 46.555C83.2577 46.5581 83.2917 46.5595 83.3254 46.5595C83.6103 46.5593 83.8841 46.4493 84.09 46.2523C84.2959 46.0553 84.418 45.7866 84.4308 45.502C84.4436 45.2174 84.3463 44.9387 84.159 44.724C83.9717 44.5094 83.7088 44.3751 83.4251 44.3492C82.3576 44.2517 81.2912 44.2021 80.2554 44.2021C78.8973 44.2021 78.0742 44.2884 78.0398 44.292C77.7498 44.3256 77.4848 44.4723 77.3024 44.7002C77.1201 44.9282 77.035 45.2189 77.0659 45.5092C77.0968 45.7995 77.241 46.0658 77.4672 46.2503C77.6934 46.4348 77.9833 46.5225 78.2738 46.4944Z" fill="#285A43"/>
<path d="M78.2738 46.4944C78.2812 46.4937 79.0269 46.417 80.2553 46.417C81.2241 46.417 82.2226 46.4634 83.2232 46.555C83.2577 46.5581 83.2917 46.5595 83.3254 46.5595C83.6103 46.5593 83.8841 46.4493 84.09 46.2523C84.2959 46.0553 84.418 45.7866 84.4308 45.502C84.4436 45.2174 84.3463 44.9387 84.159 44.724C83.9717 44.5094 83.7088 44.3751 83.4251 44.3492C82.3576 44.2517 81.2912 44.2021 80.2554 44.2021C78.8973 44.2021 78.0742 44.2884 78.0398 44.292C77.7498 44.3256 77.4848 44.4723 77.3024 44.7002C77.1201 44.9282 77.035 45.2189 77.0659 45.5092C77.0968 45.7995 77.241 46.0658 77.4672 46.2503C77.6934 46.4348 77.9833 46.5225 78.2738 46.4944Z" stroke="#285A43" stroke-width="2" mask="url(#path-9-outside-9_301_1782)"/>
</svg>
