<svg width="126" height="126" viewBox="0 0 126 126" fill="none" xmlns="http://www.w3.org/2000/svg">
<mask id="path-1-outside-1_301_1793" maskUnits="userSpaceOnUse" x="53.0986" y="62.9121" width="33" height="33" fill="black">
<rect fill="white" x="53.0986" y="62.9121" width="33" height="33"/>
<path d="M69.1932 72.537C68.1133 69.9823 66.3051 67.802 63.9942 66.2682C61.6833 64.7344 58.9719 63.915 56.1983 63.9121H55.206C54.9123 63.9121 54.6306 64.0288 54.4229 64.2365C54.2152 64.4441 54.0986 64.7258 54.0986 65.0195V66.0119C54.103 69.7305 55.5746 73.2972 58.1935 75.9372C60.8125 78.5772 64.3673 80.0772 68.0858 80.1114V88.2146C63.3674 88.4051 58.7849 89.8494 54.81 92.3988C54.686 92.4766 54.5787 92.5783 54.4942 92.6978C54.4098 92.8174 54.3499 92.9525 54.318 93.0954C54.2861 93.2383 54.2828 93.3861 54.3084 93.5302C54.334 93.6743 54.3879 93.812 54.467 93.9351C54.5461 94.0583 54.6489 94.1646 54.7693 94.2478C54.8897 94.331 55.0255 94.3895 55.1687 94.4199C55.3119 94.4504 55.4597 94.4521 55.6035 94.425C55.7474 94.398 55.8845 94.3427 56.0068 94.2623C59.9433 91.7424 64.5193 90.4033 69.1932 90.4033C73.8672 90.4033 78.4432 91.7424 82.3797 94.2623C82.502 94.3427 82.6391 94.398 82.783 94.425C82.9268 94.4521 83.0747 94.4504 83.2178 94.4199C83.361 94.3895 83.4968 94.331 83.6172 94.2478C83.7376 94.1646 83.8404 94.0583 83.9195 93.9351C83.9986 93.812 84.0525 93.6743 84.0781 93.5302C84.1037 93.3861 84.1004 93.2383 84.0685 93.0954C84.0366 92.9525 83.9767 92.8174 83.8923 92.6978C83.8078 92.5783 83.7005 92.4766 83.5765 92.3988C79.6016 89.8493 75.0191 88.4051 70.3006 88.2146V80.1114C74.0191 80.0772 77.574 78.5772 80.1929 75.9372C82.8119 73.2972 84.2834 69.7305 84.2879 66.0119V65.0195C84.2879 64.7258 84.1712 64.4441 83.9635 64.2365C83.7558 64.0288 83.4741 63.9121 83.1804 63.9121H82.1881C79.4145 63.915 76.7031 64.7344 74.3922 66.2682C72.0813 67.802 70.2731 69.9823 69.1932 72.537ZM56.3139 66.1277C59.4254 66.1613 62.4001 67.4122 64.6004 69.6125C66.8007 71.8128 68.0517 74.7874 68.0853 77.899C64.9738 77.8654 61.9992 76.6144 59.7988 74.4141C57.5985 72.2138 56.3475 69.2392 56.3139 66.1277ZM82.0725 66.1277C82.0389 69.2392 80.7879 72.2138 78.5876 74.4141C76.3873 76.6144 73.4127 77.8654 70.3011 77.899C70.3348 74.7874 71.5857 71.8128 73.7861 69.6125C75.9864 67.4122 78.961 66.1613 82.0725 66.1277Z"/>
</mask>
<path d="M69.1932 72.537C68.1133 69.9823 66.3051 67.802 63.9942 66.2682C61.6833 64.7344 58.9719 63.915 56.1983 63.9121H55.206C54.9123 63.9121 54.6306 64.0288 54.4229 64.2365C54.2152 64.4441 54.0986 64.7258 54.0986 65.0195V66.0119C54.103 69.7305 55.5746 73.2972 58.1935 75.9372C60.8125 78.5772 64.3673 80.0772 68.0858 80.1114V88.2146C63.3674 88.4051 58.7849 89.8494 54.81 92.3988C54.686 92.4766 54.5787 92.5783 54.4942 92.6978C54.4098 92.8174 54.3499 92.9525 54.318 93.0954C54.2861 93.2383 54.2828 93.3861 54.3084 93.5302C54.334 93.6743 54.3879 93.812 54.467 93.9351C54.5461 94.0583 54.6489 94.1646 54.7693 94.2478C54.8897 94.331 55.0255 94.3895 55.1687 94.4199C55.3119 94.4504 55.4597 94.4521 55.6035 94.425C55.7474 94.398 55.8845 94.3427 56.0068 94.2623C59.9433 91.7424 64.5193 90.4033 69.1932 90.4033C73.8672 90.4033 78.4432 91.7424 82.3797 94.2623C82.502 94.3427 82.6391 94.398 82.783 94.425C82.9268 94.4521 83.0747 94.4504 83.2178 94.4199C83.361 94.3895 83.4968 94.331 83.6172 94.2478C83.7376 94.1646 83.8404 94.0583 83.9195 93.9351C83.9986 93.812 84.0525 93.6743 84.0781 93.5302C84.1037 93.3861 84.1004 93.2383 84.0685 93.0954C84.0366 92.9525 83.9767 92.8174 83.8923 92.6978C83.8078 92.5783 83.7005 92.4766 83.5765 92.3988C79.6016 89.8493 75.0191 88.4051 70.3006 88.2146V80.1114C74.0191 80.0772 77.574 78.5772 80.1929 75.9372C82.8119 73.2972 84.2834 69.7305 84.2879 66.0119V65.0195C84.2879 64.7258 84.1712 64.4441 83.9635 64.2365C83.7558 64.0288 83.4741 63.9121 83.1804 63.9121H82.1881C79.4145 63.915 76.7031 64.7344 74.3922 66.2682C72.0813 67.802 70.2731 69.9823 69.1932 72.537ZM56.3139 66.1277C59.4254 66.1613 62.4001 67.4122 64.6004 69.6125C66.8007 71.8128 68.0517 74.7874 68.0853 77.899C64.9738 77.8654 61.9992 76.6144 59.7988 74.4141C57.5985 72.2138 56.3475 69.2392 56.3139 66.1277ZM82.0725 66.1277C82.0389 69.2392 80.7879 72.2138 78.5876 74.4141C76.3873 76.6144 73.4127 77.8654 70.3011 77.899C70.3348 74.7874 71.5857 71.8128 73.7861 69.6125C75.9864 67.4122 78.961 66.1613 82.0725 66.1277Z" fill="#285A43"/>
<path d="M69.1932 72.537C68.1133 69.9823 66.3051 67.802 63.9942 66.2682C61.6833 64.7344 58.9719 63.915 56.1983 63.9121H55.206C54.9123 63.9121 54.6306 64.0288 54.4229 64.2365C54.2152 64.4441 54.0986 64.7258 54.0986 65.0195V66.0119C54.103 69.7305 55.5746 73.2972 58.1935 75.9372C60.8125 78.5772 64.3673 80.0772 68.0858 80.1114V88.2146C63.3674 88.4051 58.7849 89.8494 54.81 92.3988C54.686 92.4766 54.5787 92.5783 54.4942 92.6978C54.4098 92.8174 54.3499 92.9525 54.318 93.0954C54.2861 93.2383 54.2828 93.3861 54.3084 93.5302C54.334 93.6743 54.3879 93.812 54.467 93.9351C54.5461 94.0583 54.6489 94.1646 54.7693 94.2478C54.8897 94.331 55.0255 94.3895 55.1687 94.4199C55.3119 94.4504 55.4597 94.4521 55.6035 94.425C55.7474 94.398 55.8845 94.3427 56.0068 94.2623C59.9433 91.7424 64.5193 90.4033 69.1932 90.4033C73.8672 90.4033 78.4432 91.7424 82.3797 94.2623C82.502 94.3427 82.6391 94.398 82.783 94.425C82.9268 94.4521 83.0747 94.4504 83.2178 94.4199C83.361 94.3895 83.4968 94.331 83.6172 94.2478C83.7376 94.1646 83.8404 94.0583 83.9195 93.9351C83.9986 93.812 84.0525 93.6743 84.0781 93.5302C84.1037 93.3861 84.1004 93.2383 84.0685 93.0954C84.0366 92.9525 83.9767 92.8174 83.8923 92.6978C83.8078 92.5783 83.7005 92.4766 83.5765 92.3988C79.6016 89.8493 75.0191 88.4051 70.3006 88.2146V80.1114C74.0191 80.0772 77.574 78.5772 80.1929 75.9372C82.8119 73.2972 84.2834 69.7305 84.2879 66.0119V65.0195C84.2879 64.7258 84.1712 64.4441 83.9635 64.2365C83.7558 64.0288 83.4741 63.9121 83.1804 63.9121H82.1881C79.4145 63.915 76.7031 64.7344 74.3922 66.2682C72.0813 67.802 70.2731 69.9823 69.1932 72.537ZM56.3139 66.1277C59.4254 66.1613 62.4001 67.4122 64.6004 69.6125C66.8007 71.8128 68.0517 74.7874 68.0853 77.899C64.9738 77.8654 61.9992 76.6144 59.7988 74.4141C57.5985 72.2138 56.3475 69.2392 56.3139 66.1277ZM82.0725 66.1277C82.0389 69.2392 80.7879 72.2138 78.5876 74.4141C76.3873 76.6144 73.4127 77.8654 70.3011 77.899C70.3348 74.7874 71.5857 71.8128 73.7861 69.6125C75.9864 67.4122 78.961 66.1613 82.0725 66.1277Z" stroke="#285A43" stroke-width="2" mask="url(#path-1-outside-1_301_1793)"/>
<mask id="path-2-outside-2_301_1793" maskUnits="userSpaceOnUse" x="25.0766" y="22.1643" width="76" height="82" fill="black">
<rect fill="white" x="25.0766" y="22.1643" width="76" height="82"/>
<path d="M99.4745 55.3977L69.8541 33.3661C69.6631 33.2241 69.4313 33.1473 69.1932 33.1473C68.9551 33.1473 68.7234 33.2241 68.5323 33.3661L42.6956 52.5834V28.9478C42.6956 27.4139 42.0863 25.9428 41.0017 24.8582C39.9171 23.7736 38.446 23.1643 36.9122 23.1643C35.3783 23.1643 33.9072 23.7736 32.8226 24.8582C31.738 25.9428 31.1287 27.4139 31.1287 28.9478V63.4921C29.4963 64.5144 28.168 65.9559 27.2823 67.6663C26.3967 69.3767 25.986 71.2934 26.0933 73.2165C26.2453 75.9268 27.405 78.4824 29.3445 80.3815C31.2841 82.2807 33.8635 83.3863 36.5763 83.4813C36.69 83.4847 36.8029 83.4865 36.9161 83.4865C37.4345 83.4865 37.9521 83.4498 38.4653 83.3767V101.728C38.4653 102.022 38.582 102.303 38.7896 102.511C38.9973 102.719 39.279 102.835 39.5727 102.835H98.8136C99.1073 102.835 99.389 102.719 99.5967 102.511C99.8044 102.303 99.921 102.022 99.921 101.728V56.2863C99.921 56.1136 99.8807 55.9433 99.8031 55.789C99.7256 55.6347 99.6131 55.5007 99.4745 55.3977ZM36.6437 81.2674C34.754 81.2085 32.9361 80.5298 31.47 79.336C30.004 78.1421 28.9712 76.4993 28.5307 74.6607C28.0902 72.8221 28.2665 70.8896 29.0325 69.161C29.7984 67.4325 31.1115 66.0038 32.7694 65.0949C32.9433 64.9994 33.0882 64.8589 33.1892 64.6882C33.2902 64.5175 33.3435 64.3227 33.3436 64.1244V28.9477C33.3436 28.0013 33.7195 27.0936 34.3888 26.4243C35.058 25.7551 35.9657 25.3791 36.9122 25.3791C37.8586 25.3791 38.7663 25.7551 39.4355 26.4243C40.1048 27.0936 40.4808 28.0013 40.4808 28.9477V64.1244C40.4808 64.3227 40.5341 64.5175 40.6351 64.6882C40.7361 64.8589 40.8811 64.9994 41.0549 65.0949C42.7531 66.0259 44.0884 67.5016 44.8453 69.2842C45.6022 71.0668 45.7367 73.0524 45.2271 74.9208C44.7175 76.7892 43.5934 78.4315 42.0362 79.5829C40.479 80.7343 38.5794 81.3277 36.6437 81.2674ZM97.7062 100.621H40.6802V82.8142C42.5742 82.111 44.234 80.8924 45.4721 79.2959C46.7102 77.6994 47.4773 75.7886 47.6869 73.7791C47.8965 71.7697 47.5403 69.7417 46.6583 67.9241C45.7764 66.1064 44.4038 64.5715 42.6957 63.4926V55.3437L69.1933 35.6349L97.7063 56.8428L97.7062 100.621Z"/>
</mask>
<path d="M99.4745 55.3977L69.8541 33.3661C69.6631 33.2241 69.4313 33.1473 69.1932 33.1473C68.9551 33.1473 68.7234 33.2241 68.5323 33.3661L42.6956 52.5834V28.9478C42.6956 27.4139 42.0863 25.9428 41.0017 24.8582C39.9171 23.7736 38.446 23.1643 36.9122 23.1643C35.3783 23.1643 33.9072 23.7736 32.8226 24.8582C31.738 25.9428 31.1287 27.4139 31.1287 28.9478V63.4921C29.4963 64.5144 28.168 65.9559 27.2823 67.6663C26.3967 69.3767 25.986 71.2934 26.0933 73.2165C26.2453 75.9268 27.405 78.4824 29.3445 80.3815C31.2841 82.2807 33.8635 83.3863 36.5763 83.4813C36.69 83.4847 36.8029 83.4865 36.9161 83.4865C37.4345 83.4865 37.9521 83.4498 38.4653 83.3767V101.728C38.4653 102.022 38.582 102.303 38.7896 102.511C38.9973 102.719 39.279 102.835 39.5727 102.835H98.8136C99.1073 102.835 99.389 102.719 99.5967 102.511C99.8044 102.303 99.921 102.022 99.921 101.728V56.2863C99.921 56.1136 99.8807 55.9433 99.8031 55.789C99.7256 55.6347 99.6131 55.5007 99.4745 55.3977ZM36.6437 81.2674C34.754 81.2085 32.9361 80.5298 31.47 79.336C30.004 78.1421 28.9712 76.4993 28.5307 74.6607C28.0902 72.8221 28.2665 70.8896 29.0325 69.161C29.7984 67.4325 31.1115 66.0038 32.7694 65.0949C32.9433 64.9994 33.0882 64.8589 33.1892 64.6882C33.2902 64.5175 33.3435 64.3227 33.3436 64.1244V28.9477C33.3436 28.0013 33.7195 27.0936 34.3888 26.4243C35.058 25.7551 35.9657 25.3791 36.9122 25.3791C37.8586 25.3791 38.7663 25.7551 39.4355 26.4243C40.1048 27.0936 40.4808 28.0013 40.4808 28.9477V64.1244C40.4808 64.3227 40.5341 64.5175 40.6351 64.6882C40.7361 64.8589 40.8811 64.9994 41.0549 65.0949C42.7531 66.0259 44.0884 67.5016 44.8453 69.2842C45.6022 71.0668 45.7367 73.0524 45.2271 74.9208C44.7175 76.7892 43.5934 78.4315 42.0362 79.5829C40.479 80.7343 38.5794 81.3277 36.6437 81.2674ZM97.7062 100.621H40.6802V82.8142C42.5742 82.111 44.234 80.8924 45.4721 79.2959C46.7102 77.6994 47.4773 75.7886 47.6869 73.7791C47.8965 71.7697 47.5403 69.7417 46.6583 67.9241C45.7764 66.1064 44.4038 64.5715 42.6957 63.4926V55.3437L69.1933 35.6349L97.7063 56.8428L97.7062 100.621Z" fill="#285A43"/>
<path d="M99.4745 55.3977L69.8541 33.3661C69.6631 33.2241 69.4313 33.1473 69.1932 33.1473C68.9551 33.1473 68.7234 33.2241 68.5323 33.3661L42.6956 52.5834V28.9478C42.6956 27.4139 42.0863 25.9428 41.0017 24.8582C39.9171 23.7736 38.446 23.1643 36.9122 23.1643C35.3783 23.1643 33.9072 23.7736 32.8226 24.8582C31.738 25.9428 31.1287 27.4139 31.1287 28.9478V63.4921C29.4963 64.5144 28.168 65.9559 27.2823 67.6663C26.3967 69.3767 25.986 71.2934 26.0933 73.2165C26.2453 75.9268 27.405 78.4824 29.3445 80.3815C31.2841 82.2807 33.8635 83.3863 36.5763 83.4813C36.69 83.4847 36.8029 83.4865 36.9161 83.4865C37.4345 83.4865 37.9521 83.4498 38.4653 83.3767V101.728C38.4653 102.022 38.582 102.303 38.7896 102.511C38.9973 102.719 39.279 102.835 39.5727 102.835H98.8136C99.1073 102.835 99.389 102.719 99.5967 102.511C99.8044 102.303 99.921 102.022 99.921 101.728V56.2863C99.921 56.1136 99.8807 55.9433 99.8031 55.789C99.7256 55.6347 99.6131 55.5007 99.4745 55.3977ZM36.6437 81.2674C34.754 81.2085 32.9361 80.5298 31.47 79.336C30.004 78.1421 28.9712 76.4993 28.5307 74.6607C28.0902 72.8221 28.2665 70.8896 29.0325 69.161C29.7984 67.4325 31.1115 66.0038 32.7694 65.0949C32.9433 64.9994 33.0882 64.8589 33.1892 64.6882C33.2902 64.5175 33.3435 64.3227 33.3436 64.1244V28.9477C33.3436 28.0013 33.7195 27.0936 34.3888 26.4243C35.058 25.7551 35.9657 25.3791 36.9122 25.3791C37.8586 25.3791 38.7663 25.7551 39.4355 26.4243C40.1048 27.0936 40.4808 28.0013 40.4808 28.9477V64.1244C40.4808 64.3227 40.5341 64.5175 40.6351 64.6882C40.7361 64.8589 40.8811 64.9994 41.0549 65.0949C42.7531 66.0259 44.0884 67.5016 44.8453 69.2842C45.6022 71.0668 45.7367 73.0524 45.2271 74.9208C44.7175 76.7892 43.5934 78.4315 42.0362 79.5829C40.479 80.7343 38.5794 81.3277 36.6437 81.2674ZM97.7062 100.621H40.6802V82.8142C42.5742 82.111 44.234 80.8924 45.4721 79.2959C46.7102 77.6994 47.4773 75.7886 47.6869 73.7791C47.8965 71.7697 47.5403 69.7417 46.6583 67.9241C45.7764 66.1064 44.4038 64.5715 42.6957 63.4926V55.3437L69.1933 35.6349L97.7063 56.8428L97.7062 100.621Z" stroke="#285A43" stroke-width="2" mask="url(#path-2-outside-2_301_1793)"/>
<mask id="path-3-outside-3_301_1793" maskUnits="userSpaceOnUse" x="30.7089" y="29.3416" width="13" height="50" fill="black">
<rect fill="white" x="30.7089" y="29.3416" width="13" height="50"/>
<path d="M38.0196 67.6545V31.449C38.0196 31.1553 37.9029 30.8736 37.6952 30.6659C37.4876 30.4582 37.2059 30.3416 36.9122 30.3416C36.6185 30.3416 36.3368 30.4582 36.1291 30.6659C35.9214 30.8736 35.8048 31.1553 35.8048 31.449V67.6545C34.5506 67.9276 33.4417 68.6548 32.6911 69.696C31.9406 70.7373 31.6014 72.0193 31.7388 73.2955C31.8761 74.5717 32.4804 75.7521 33.4354 76.6097C34.3903 77.4674 35.6286 77.9419 36.9122 77.9419C38.1958 77.9419 39.434 77.4674 40.389 76.6097C41.344 75.7521 41.9482 74.5717 42.0856 73.2955C42.223 72.0193 41.8838 70.7373 41.1333 69.696C40.3827 68.6548 39.2738 67.9276 38.0196 67.6545ZM36.9122 75.7246C36.3211 75.7245 35.7434 75.5493 35.252 75.2209C34.7606 74.8925 34.3776 74.4258 34.1514 73.8797C33.9252 73.3337 33.8661 72.7328 33.9814 72.1531C34.0967 71.5735 34.3813 71.041 34.7993 70.6231C35.2172 70.2052 35.7497 69.9206 36.3294 69.8053C36.909 69.69 37.5099 69.7492 38.0559 69.9754C38.602 70.2016 39.0687 70.5846 39.397 71.076C39.7254 71.5675 39.9006 72.1452 39.9006 72.7362C39.8998 73.5285 39.5846 74.2881 39.0244 74.8484C38.4641 75.4086 37.7045 75.7237 36.9122 75.7246Z"/>
</mask>
<path d="M38.0196 67.6545V31.449C38.0196 31.1553 37.9029 30.8736 37.6952 30.6659C37.4876 30.4582 37.2059 30.3416 36.9122 30.3416C36.6185 30.3416 36.3368 30.4582 36.1291 30.6659C35.9214 30.8736 35.8048 31.1553 35.8048 31.449V67.6545C34.5506 67.9276 33.4417 68.6548 32.6911 69.696C31.9406 70.7373 31.6014 72.0193 31.7388 73.2955C31.8761 74.5717 32.4804 75.7521 33.4354 76.6097C34.3903 77.4674 35.6286 77.9419 36.9122 77.9419C38.1958 77.9419 39.434 77.4674 40.389 76.6097C41.344 75.7521 41.9482 74.5717 42.0856 73.2955C42.223 72.0193 41.8838 70.7373 41.1333 69.696C40.3827 68.6548 39.2738 67.9276 38.0196 67.6545ZM36.9122 75.7246C36.3211 75.7245 35.7434 75.5493 35.252 75.2209C34.7606 74.8925 34.3776 74.4258 34.1514 73.8797C33.9252 73.3337 33.8661 72.7328 33.9814 72.1531C34.0967 71.5735 34.3813 71.041 34.7993 70.6231C35.2172 70.2052 35.7497 69.9206 36.3294 69.8053C36.909 69.69 37.5099 69.7492 38.0559 69.9754C38.602 70.2016 39.0687 70.5846 39.397 71.076C39.7254 71.5675 39.9006 72.1452 39.9006 72.7362C39.8998 73.5285 39.5846 74.2881 39.0244 74.8484C38.4641 75.4086 37.7045 75.7237 36.9122 75.7246Z" fill="#285A43"/>
<path d="M38.0196 67.6545V31.449C38.0196 31.1553 37.9029 30.8736 37.6952 30.6659C37.4876 30.4582 37.2059 30.3416 36.9122 30.3416C36.6185 30.3416 36.3368 30.4582 36.1291 30.6659C35.9214 30.8736 35.8048 31.1553 35.8048 31.449V67.6545C34.5506 67.9276 33.4417 68.6548 32.6911 69.696C31.9406 70.7373 31.6014 72.0193 31.7388 73.2955C31.8761 74.5717 32.4804 75.7521 33.4354 76.6097C34.3903 77.4674 35.6286 77.9419 36.9122 77.9419C38.1958 77.9419 39.434 77.4674 40.389 76.6097C41.344 75.7521 41.9482 74.5717 42.0856 73.2955C42.223 72.0193 41.8838 70.7373 41.1333 69.696C40.3827 68.6548 39.2738 67.9276 38.0196 67.6545ZM36.9122 75.7246C36.3211 75.7245 35.7434 75.5493 35.252 75.2209C34.7606 74.8925 34.3776 74.4258 34.1514 73.8797C33.9252 73.3337 33.8661 72.7328 33.9814 72.1531C34.0967 71.5735 34.3813 71.041 34.7993 70.6231C35.2172 70.2052 35.7497 69.9206 36.3294 69.8053C36.909 69.69 37.5099 69.7492 38.0559 69.9754C38.602 70.2016 39.0687 70.5846 39.397 71.076C39.7254 71.5675 39.9006 72.1452 39.9006 72.7362C39.8998 73.5285 39.5846 74.2881 39.0244 74.8484C38.4641 75.4086 37.7045 75.7237 36.9122 75.7246Z" stroke="#285A43" stroke-width="2" mask="url(#path-3-outside-3_301_1793)"/>
<mask id="path-4-outside-4_301_1793" maskUnits="userSpaceOnUse" x="63.1031" y="48.7593" width="6" height="13" fill="black">
<rect fill="white" x="63.1031" y="48.7593" width="6" height="13"/>
<path d="M64.1033 59.3862C64.1033 59.68 64.22 59.9616 64.4277 60.1693C64.6354 60.377 64.917 60.4937 65.2107 60.4937C65.5045 60.4937 65.7861 60.377 65.9938 60.1693C66.2015 59.9616 66.3182 59.68 66.3182 59.3862C66.3109 59.0949 66.4166 58.812 66.6131 58.5968C67.0604 58.0066 67.3026 57.2863 67.3026 56.5457C67.3026 55.8051 67.0604 55.0849 66.6131 54.4947C66.4229 54.2759 66.3182 53.9958 66.3182 53.7059C66.3181 53.416 66.4228 53.1359 66.6128 52.917C67.0671 52.3308 67.3102 51.6083 67.3025 50.8667C67.3025 50.573 67.1859 50.2913 66.9782 50.0836C66.7705 49.876 66.4888 49.7593 66.1951 49.7593C65.9014 49.7593 65.6197 49.876 65.4121 50.0836C65.2044 50.2913 65.0877 50.573 65.0877 50.8667C65.0948 51.1576 64.9893 51.44 64.7931 51.6548C64.3456 52.2449 64.1034 52.965 64.1033 53.7056C64.1033 54.4461 64.3454 55.1663 64.7928 55.7564C64.983 55.9754 65.0877 56.2557 65.0877 56.5457C65.0877 56.8358 64.983 57.1161 64.7928 57.3351C64.3386 57.9217 64.0957 58.6444 64.1033 59.3862Z"/>
</mask>
<path d="M64.1033 59.3862C64.1033 59.68 64.22 59.9616 64.4277 60.1693C64.6354 60.377 64.917 60.4937 65.2107 60.4937C65.5045 60.4937 65.7861 60.377 65.9938 60.1693C66.2015 59.9616 66.3182 59.68 66.3182 59.3862C66.3109 59.0949 66.4166 58.812 66.6131 58.5968C67.0604 58.0066 67.3026 57.2863 67.3026 56.5457C67.3026 55.8051 67.0604 55.0849 66.6131 54.4947C66.4229 54.2759 66.3182 53.9958 66.3182 53.7059C66.3181 53.416 66.4228 53.1359 66.6128 52.917C67.0671 52.3308 67.3102 51.6083 67.3025 50.8667C67.3025 50.573 67.1859 50.2913 66.9782 50.0836C66.7705 49.876 66.4888 49.7593 66.1951 49.7593C65.9014 49.7593 65.6197 49.876 65.4121 50.0836C65.2044 50.2913 65.0877 50.573 65.0877 50.8667C65.0948 51.1576 64.9893 51.44 64.7931 51.6548C64.3456 52.2449 64.1034 52.965 64.1033 53.7056C64.1033 54.4461 64.3454 55.1663 64.7928 55.7564C64.983 55.9754 65.0877 56.2557 65.0877 56.5457C65.0877 56.8358 64.983 57.1161 64.7928 57.3351C64.3386 57.9217 64.0957 58.6444 64.1033 59.3862Z" fill="#285A43"/>
<path d="M64.1033 59.3862C64.1033 59.68 64.22 59.9616 64.4277 60.1693C64.6354 60.377 64.917 60.4937 65.2107 60.4937C65.5045 60.4937 65.7861 60.377 65.9938 60.1693C66.2015 59.9616 66.3182 59.68 66.3182 59.3862C66.3109 59.0949 66.4166 58.812 66.6131 58.5968C67.0604 58.0066 67.3026 57.2863 67.3026 56.5457C67.3026 55.8051 67.0604 55.0849 66.6131 54.4947C66.4229 54.2759 66.3182 53.9958 66.3182 53.7059C66.3181 53.416 66.4228 53.1359 66.6128 52.917C67.0671 52.3308 67.3102 51.6083 67.3025 50.8667C67.3025 50.573 67.1859 50.2913 66.9782 50.0836C66.7705 49.876 66.4888 49.7593 66.1951 49.7593C65.9014 49.7593 65.6197 49.876 65.4121 50.0836C65.2044 50.2913 65.0877 50.573 65.0877 50.8667C65.0948 51.1576 64.9893 51.44 64.7931 51.6548C64.3456 52.2449 64.1034 52.965 64.1033 53.7056C64.1033 54.4461 64.3454 55.1663 64.7928 55.7564C64.983 55.9754 65.0877 56.2557 65.0877 56.5457C65.0877 56.8358 64.983 57.1161 64.7928 57.3351C64.3386 57.9217 64.0957 58.6444 64.1033 59.3862Z" stroke="#285A43" stroke-width="2" mask="url(#path-4-outside-4_301_1793)"/>
<mask id="path-5-outside-5_301_1793" maskUnits="userSpaceOnUse" x="70.0837" y="48.7593" width="6" height="13" fill="black">
<rect fill="white" x="70.0837" y="48.7593" width="6" height="13"/>
<path d="M71.0839 59.3862C71.0839 59.68 71.2005 59.9616 71.4082 60.1693C71.6159 60.377 71.8976 60.4937 72.1913 60.4937C72.485 60.4937 72.7667 60.377 72.9743 60.1693C73.182 59.9616 73.2987 59.68 73.2987 59.3862C73.2914 59.0949 73.3971 58.812 73.5936 58.5968C74.0409 58.0066 74.2831 57.2863 74.2831 56.5457C74.2831 55.8051 74.0409 55.0849 73.5936 54.4947C73.4035 54.2759 73.2987 53.9958 73.2987 53.7059C73.2987 53.416 73.4033 53.1359 73.5933 52.917C74.0476 52.3308 74.2907 51.6083 74.2831 50.8667C74.2831 50.573 74.1664 50.2913 73.9587 50.0836C73.751 49.876 73.4694 49.7593 73.1757 49.7593C72.8819 49.7593 72.6003 49.876 72.3926 50.0836C72.1849 50.2913 72.0682 50.573 72.0682 50.8667C72.0754 51.1576 71.9698 51.44 71.7736 51.6548C71.3261 52.2449 71.0839 52.965 71.0839 53.7056C71.0838 54.4461 71.326 55.1663 71.7733 55.7564C71.9635 55.9754 72.0682 56.2557 72.0682 56.5457C72.0682 56.8358 71.9635 57.1161 71.7733 57.3351C71.3191 57.9217 71.0762 58.6444 71.0839 59.3862Z"/>
</mask>
<path d="M71.0839 59.3862C71.0839 59.68 71.2005 59.9616 71.4082 60.1693C71.6159 60.377 71.8976 60.4937 72.1913 60.4937C72.485 60.4937 72.7667 60.377 72.9743 60.1693C73.182 59.9616 73.2987 59.68 73.2987 59.3862C73.2914 59.0949 73.3971 58.812 73.5936 58.5968C74.0409 58.0066 74.2831 57.2863 74.2831 56.5457C74.2831 55.8051 74.0409 55.0849 73.5936 54.4947C73.4035 54.2759 73.2987 53.9958 73.2987 53.7059C73.2987 53.416 73.4033 53.1359 73.5933 52.917C74.0476 52.3308 74.2907 51.6083 74.2831 50.8667C74.2831 50.573 74.1664 50.2913 73.9587 50.0836C73.751 49.876 73.4694 49.7593 73.1757 49.7593C72.8819 49.7593 72.6003 49.876 72.3926 50.0836C72.1849 50.2913 72.0682 50.573 72.0682 50.8667C72.0754 51.1576 71.9698 51.44 71.7736 51.6548C71.3261 52.2449 71.0839 52.965 71.0839 53.7056C71.0838 54.4461 71.326 55.1663 71.7733 55.7564C71.9635 55.9754 72.0682 56.2557 72.0682 56.5457C72.0682 56.8358 71.9635 57.1161 71.7733 57.3351C71.3191 57.9217 71.0762 58.6444 71.0839 59.3862Z" fill="#285A43"/>
<path d="M71.0839 59.3862C71.0839 59.68 71.2005 59.9616 71.4082 60.1693C71.6159 60.377 71.8976 60.4937 72.1913 60.4937C72.485 60.4937 72.7667 60.377 72.9743 60.1693C73.182 59.9616 73.2987 59.68 73.2987 59.3862C73.2914 59.0949 73.3971 58.812 73.5936 58.5968C74.0409 58.0066 74.2831 57.2863 74.2831 56.5457C74.2831 55.8051 74.0409 55.0849 73.5936 54.4947C73.4035 54.2759 73.2987 53.9958 73.2987 53.7059C73.2987 53.416 73.4033 53.1359 73.5933 52.917C74.0476 52.3308 74.2907 51.6083 74.2831 50.8667C74.2831 50.573 74.1664 50.2913 73.9587 50.0836C73.751 49.876 73.4694 49.7593 73.1757 49.7593C72.8819 49.7593 72.6003 49.876 72.3926 50.0836C72.1849 50.2913 72.0682 50.573 72.0682 50.8667C72.0754 51.1576 71.9698 51.44 71.7736 51.6548C71.3261 52.2449 71.0839 52.965 71.0839 53.7056C71.0838 54.4461 71.326 55.1663 71.7733 55.7564C71.9635 55.9754 72.0682 56.2557 72.0682 56.5457C72.0682 56.8358 71.9635 57.1161 71.7733 57.3351C71.3191 57.9217 71.0762 58.6444 71.0839 59.3862Z" stroke="#285A43" stroke-width="2" mask="url(#path-5-outside-5_301_1793)"/>
</svg>
